<mxfile host="app.diagrams.net" modified="2022-11-02T07:42:57.279Z" agent="5.0 (Windows NT 10.0; Win64; x64) AppleWebKit/537.36 (KHTML, like Gecko) Chrome/106.0.0.0 Safari/537.36" etag="V-hkPRxuWhON1UxNFKhe" version="20.5.1" type="github">
  <diagram id="ZT1G2jXyGu9DbgjgbON4" name="第 1 页">
    <mxGraphModel dx="971" dy="516" grid="1" gridSize="10" guides="1" tooltips="1" connect="1" arrows="1" fold="1" page="1" pageScale="1" pageWidth="827" pageHeight="1169" math="0" shadow="0">
      <root>
        <mxCell id="0" />
        <mxCell id="1" parent="0" />
        <mxCell id="s6uH3Yv9zvbrsQpUSpC0-69" value="" style="rounded=1;whiteSpace=wrap;html=1;fontFamily=Verdana;fontSize=12;opacity=40;fillColor=#fff2cc;strokeColor=#d6b656;" vertex="1" parent="1">
          <mxGeometry x="280" y="280" width="120" height="90" as="geometry" />
        </mxCell>
        <mxCell id="s6uH3Yv9zvbrsQpUSpC0-22" value="" style="whiteSpace=wrap;html=1;shape=mxgraph.basic.isocube;isoAngle=15;fontFamily=Verdana;fontSize=12;fillColor=#dae8fc;strokeColor=#6c8ebf;" vertex="1" parent="1">
          <mxGeometry x="470" y="160" width="100" height="100" as="geometry" />
        </mxCell>
        <mxCell id="s6uH3Yv9zvbrsQpUSpC0-24" value="&lt;b&gt;后台管理统一入口&lt;/b&gt;" style="text;html=1;align=center;verticalAlign=middle;resizable=0;points=[];autosize=1;strokeColor=none;fillColor=none;fontSize=12;fontFamily=Verdana;" vertex="1" parent="1">
          <mxGeometry x="460" y="210" width="120" height="30" as="geometry" />
        </mxCell>
        <mxCell id="s6uH3Yv9zvbrsQpUSpC0-52" value="" style="verticalLabelPosition=middle;verticalAlign=middle;html=1;shape=mxgraph.infographic.cylinder;fillColor=#12AAB5;strokeColor=none;shadow=0;align=left;labelPosition=right;spacingLeft=10;fontStyle=1;fontColor=#12AAB5;fontFamily=Verdana;fontSize=12;" vertex="1" parent="1">
          <mxGeometry x="307.5" y="330" width="65" height="30" as="geometry" />
        </mxCell>
        <mxCell id="s6uH3Yv9zvbrsQpUSpC0-53" value="" style="verticalLabelPosition=middle;verticalAlign=middle;html=1;shape=mxgraph.infographic.cylinder;fillColor=#23445D;strokeColor=none;shadow=0;align=left;labelPosition=right;spacingLeft=10;fontStyle=1;fontColor=#23445D;fontFamily=Verdana;fontSize=12;" vertex="1" parent="1">
          <mxGeometry x="307.5" y="320" width="65" height="30" as="geometry" />
        </mxCell>
        <mxCell id="s6uH3Yv9zvbrsQpUSpC0-54" value="" style="verticalLabelPosition=middle;verticalAlign=middle;html=1;shape=mxgraph.infographic.cylinder;fillColor=#AE4132;strokeColor=none;shadow=0;align=left;labelPosition=right;spacingLeft=10;fontStyle=1;fontColor=#AE4132;fontFamily=Verdana;fontSize=12;" vertex="1" parent="1">
          <mxGeometry x="307.5" y="310" width="65" height="30" as="geometry" />
        </mxCell>
        <mxCell id="s6uH3Yv9zvbrsQpUSpC0-55" value="" style="verticalLabelPosition=middle;verticalAlign=middle;html=1;shape=mxgraph.infographic.cylinder;fillColor=#F2931E;strokeColor=none;shadow=0;align=left;labelPosition=right;spacingLeft=10;fontStyle=1;fontColor=#F2931E;fontFamily=Verdana;fontSize=12;" vertex="1" parent="1">
          <mxGeometry x="307.5" y="300" width="65" height="30" as="geometry" />
        </mxCell>
        <mxCell id="s6uH3Yv9zvbrsQpUSpC0-56" value="" style="verticalLabelPosition=middle;verticalAlign=middle;html=1;shape=mxgraph.infographic.cylinder;fillColor=#10739E;strokeColor=none;shadow=0;align=left;labelPosition=right;spacingLeft=10;fontStyle=1;fontColor=#10739E;fontFamily=Verdana;fontSize=12;" vertex="1" parent="1">
          <mxGeometry x="307.5" y="290" width="65" height="30" as="geometry" />
        </mxCell>
        <mxCell id="s6uH3Yv9zvbrsQpUSpC0-57" value="中文" style="strokeWidth=1;shadow=0;dashed=0;align=center;html=1;shape=mxgraph.mockup.text.callout;linkText=;textSize=17;textColor=#666666;callDir=NW;callStyle=line;fontSize=17;fontColor=#10739E;align=left;verticalAlign=top;strokeColor=#666666;fillColor=#4D9900;flipV=0;fontStyle=1;fontFamily=Verdana;" vertex="1" parent="1">
          <mxGeometry x="200" y="270" width="107.5" height="40" as="geometry" />
        </mxCell>
        <mxCell id="s6uH3Yv9zvbrsQpUSpC0-58" value="英语" style="strokeWidth=1;shadow=0;dashed=0;align=center;html=1;shape=mxgraph.mockup.text.callout;linkText=;textSize=17;textColor=#666666;callDir=NW;callStyle=line;fontSize=17;fontColor=#F2931E;align=left;verticalAlign=top;strokeColor=#666666;fillColor=#4D9900;flipV=0;fontStyle=1;fontFamily=Verdana;" vertex="1" parent="1">
          <mxGeometry x="200" y="290" width="107.5" height="30" as="geometry" />
        </mxCell>
        <mxCell id="s6uH3Yv9zvbrsQpUSpC0-59" value="繁体" style="strokeWidth=1;shadow=0;dashed=0;align=center;html=1;shape=mxgraph.mockup.text.callout;linkText=;textSize=17;textColor=#666666;callDir=NW;callStyle=line;fontSize=17;fontColor=#AE4132;align=left;verticalAlign=top;strokeColor=#666666;fillColor=#4D9900;flipV=0;fontStyle=1;fontFamily=Verdana;" vertex="1" parent="1">
          <mxGeometry x="200" y="310" width="107.5" height="20" as="geometry" />
        </mxCell>
        <mxCell id="s6uH3Yv9zvbrsQpUSpC0-60" value="日文" style="strokeWidth=1;shadow=0;dashed=0;align=center;html=1;shape=mxgraph.mockup.text.callout;linkText=;textSize=17;textColor=#666666;callDir=SW;callStyle=line;fontSize=17;fontColor=#23445D;align=left;verticalAlign=bottom;strokeColor=#666666;fillColor=#4D9900;flipV=0;fontStyle=1;fontFamily=Verdana;" vertex="1" parent="1">
          <mxGeometry x="200" y="340" width="107.5" height="20" as="geometry" />
        </mxCell>
        <mxCell id="s6uH3Yv9zvbrsQpUSpC0-61" value="....." style="strokeWidth=1;shadow=0;dashed=0;align=center;html=1;shape=mxgraph.mockup.text.callout;linkText=;textSize=17;textColor=#666666;callDir=SW;callStyle=line;fontSize=17;fontColor=#12AAB5;align=left;verticalAlign=bottom;strokeColor=#666666;fillColor=#4D9900;flipV=0;fontStyle=1;fontFamily=Verdana;" vertex="1" parent="1">
          <mxGeometry x="200" y="360" width="107.5" height="20" as="geometry" />
        </mxCell>
        <mxCell id="s6uH3Yv9zvbrsQpUSpC0-103" value="" style="edgeStyle=orthogonalEdgeStyle;rounded=0;orthogonalLoop=1;jettySize=auto;html=1;fontFamily=Verdana;fontSize=12;fillColor=#6a00ff;strokeColor=#3700CC;" edge="1" parent="1" source="s6uH3Yv9zvbrsQpUSpC0-70" target="s6uH3Yv9zvbrsQpUSpC0-97">
          <mxGeometry relative="1" as="geometry" />
        </mxCell>
        <mxCell id="s6uH3Yv9zvbrsQpUSpC0-70" value="&lt;b&gt;模&lt;br&gt;块&lt;br&gt;化&lt;br&gt;存&lt;br&gt;储&lt;/b&gt;" style="text;html=1;align=center;verticalAlign=middle;resizable=0;points=[];autosize=1;strokeColor=none;fillColor=none;fontSize=12;fontFamily=Verdana;" vertex="1" parent="1">
          <mxGeometry x="370" y="280" width="40" height="90" as="geometry" />
        </mxCell>
        <mxCell id="s6uH3Yv9zvbrsQpUSpC0-71" value="&lt;span style=&quot;color: rgb(51, 51, 51); font-family: Helvetica;&quot;&gt;前端网站界面&amp;nbsp;&lt;/span&gt;" style="text;html=1;align=center;verticalAlign=middle;resizable=0;points=[];autosize=1;strokeColor=none;fillColor=none;fontSize=12;fontFamily=Verdana;" vertex="1" parent="1">
          <mxGeometry x="162.5" y="75" width="100" height="30" as="geometry" />
        </mxCell>
        <mxCell id="s6uH3Yv9zvbrsQpUSpC0-82" value="JavaSript&lt;br&gt;Html&lt;br&gt;CSS" style="rounded=1;whiteSpace=wrap;html=1;fontFamily=Verdana;fontSize=12;opacity=40;fillColor=#d5e8d4;strokeColor=#82b366;" vertex="1" parent="1">
          <mxGeometry x="280" y="60" width="120" height="60" as="geometry" />
        </mxCell>
        <mxCell id="s6uH3Yv9zvbrsQpUSpC0-84" value="Java" style="rounded=1;whiteSpace=wrap;html=1;fontFamily=Verdana;fontSize=12;opacity=40;fillColor=#f8cecc;strokeColor=#b85450;" vertex="1" parent="1">
          <mxGeometry x="280" y="170" width="120" height="60" as="geometry" />
        </mxCell>
        <mxCell id="s6uH3Yv9zvbrsQpUSpC0-86" value="后台程序" style="text;html=1;align=center;verticalAlign=middle;resizable=0;points=[];autosize=1;strokeColor=none;fillColor=none;fontSize=12;fontFamily=Verdana;" vertex="1" parent="1">
          <mxGeometry x="177.5" y="185" width="70" height="30" as="geometry" />
        </mxCell>
        <mxCell id="s6uH3Yv9zvbrsQpUSpC0-88" value="&lt;b&gt;Mysql&lt;/b&gt;" style="text;html=1;align=center;verticalAlign=middle;resizable=0;points=[];autosize=1;strokeColor=none;fillColor=none;fontSize=12;fontFamily=Verdana;" vertex="1" parent="1">
          <mxGeometry x="312.5" y="370" width="60" height="30" as="geometry" />
        </mxCell>
        <mxCell id="s6uH3Yv9zvbrsQpUSpC0-89" value="" style="endArrow=classic;html=1;rounded=0;fontFamily=Verdana;fontSize=12;fillColor=#d5e8d4;strokeColor=#82b366;" edge="1" parent="1">
          <mxGeometry width="50" height="50" relative="1" as="geometry">
            <mxPoint x="312.5" y="120" as="sourcePoint" />
            <mxPoint x="313" y="170" as="targetPoint" />
          </mxGeometry>
        </mxCell>
        <mxCell id="s6uH3Yv9zvbrsQpUSpC0-90" value="" style="endArrow=classic;html=1;rounded=0;fontFamily=Verdana;fontSize=12;entryX=0.25;entryY=0;entryDx=0;entryDy=0;fillColor=#d5e8d4;strokeColor=#82b366;" edge="1" parent="1" target="s6uH3Yv9zvbrsQpUSpC0-69">
          <mxGeometry width="50" height="50" relative="1" as="geometry">
            <mxPoint x="310" y="230" as="sourcePoint" />
            <mxPoint x="292.5" y="380" as="targetPoint" />
          </mxGeometry>
        </mxCell>
        <mxCell id="s6uH3Yv9zvbrsQpUSpC0-91" value="" style="endArrow=classic;html=1;rounded=0;fontFamily=Verdana;fontSize=12;exitX=0.671;exitY=-0.008;exitDx=0;exitDy=0;exitPerimeter=0;fillColor=#d5e8d4;strokeColor=#82b366;" edge="1" parent="1" source="s6uH3Yv9zvbrsQpUSpC0-69">
          <mxGeometry width="50" height="50" relative="1" as="geometry">
            <mxPoint x="360" y="270" as="sourcePoint" />
            <mxPoint x="360" y="230" as="targetPoint" />
            <Array as="points">
              <mxPoint x="360" y="260" />
            </Array>
          </mxGeometry>
        </mxCell>
        <mxCell id="s6uH3Yv9zvbrsQpUSpC0-93" value="" style="endArrow=classic;startArrow=classic;html=1;rounded=0;fontFamily=Verdana;fontSize=12;fillColor=#f8cecc;strokeColor=#b85450;" edge="1" parent="1">
          <mxGeometry width="50" height="50" relative="1" as="geometry">
            <mxPoint x="400" y="200" as="sourcePoint" />
            <mxPoint x="470" y="200" as="targetPoint" />
          </mxGeometry>
        </mxCell>
        <mxCell id="s6uH3Yv9zvbrsQpUSpC0-94" value="" style="endArrow=classic;html=1;rounded=0;fontFamily=Verdana;fontSize=12;fillColor=#d5e8d4;strokeColor=#82b366;" edge="1" parent="1">
          <mxGeometry width="50" height="50" relative="1" as="geometry">
            <mxPoint x="360" y="170" as="sourcePoint" />
            <mxPoint x="360" y="120" as="targetPoint" />
            <Array as="points">
              <mxPoint x="360" y="150" />
            </Array>
          </mxGeometry>
        </mxCell>
        <mxCell id="s6uH3Yv9zvbrsQpUSpC0-100" value="" style="edgeStyle=orthogonalEdgeStyle;rounded=0;orthogonalLoop=1;jettySize=auto;html=1;fontFamily=Verdana;fontSize=12;fillColor=#6a00ff;strokeColor=#3700CC;" edge="1" parent="1" source="s6uH3Yv9zvbrsQpUSpC0-97">
          <mxGeometry relative="1" as="geometry">
            <mxPoint x="520" y="260" as="targetPoint" />
          </mxGeometry>
        </mxCell>
        <mxCell id="s6uH3Yv9zvbrsQpUSpC0-97" value="&lt;br&gt;SEO推送池" style="strokeWidth=2;html=1;shape=mxgraph.flowchart.database;whiteSpace=wrap;fontFamily=Verdana;fontSize=12;opacity=40;fillColor=#dae8fc;strokeColor=#BF0F0F;" vertex="1" parent="1">
          <mxGeometry x="490" y="295" width="60" height="60" as="geometry" />
        </mxCell>
        <mxCell id="s6uH3Yv9zvbrsQpUSpC0-105" value="" style="shape=curlyBracket;whiteSpace=wrap;html=1;rounded=1;strokeColor=#BF0F0F;fontFamily=Verdana;fontSize=12;opacity=40;size=0.5;" vertex="1" parent="1">
          <mxGeometry x="242.5" y="275" width="20" height="120" as="geometry" />
        </mxCell>
        <mxCell id="s6uH3Yv9zvbrsQpUSpC0-106" value="" style="shape=curlyBracket;whiteSpace=wrap;html=1;rounded=1;flipH=1;strokeColor=#BF0F0F;fontFamily=Verdana;fontSize=12;opacity=40;" vertex="1" parent="1">
          <mxGeometry x="560" y="275" width="20" height="120" as="geometry" />
        </mxCell>
        <mxCell id="s6uH3Yv9zvbrsQpUSpC0-107" value="" style="shape=flexArrow;endArrow=classic;html=1;rounded=0;fontFamily=Verdana;fontSize=12;exitX=1;exitY=1;exitDx=0;exitDy=0;endWidth=11.904761904761905;endSize=5.742857142857143;entryX=0;entryY=0.083;entryDx=0;entryDy=0;entryPerimeter=0;fillColor=#e3c800;strokeColor=#B09500;" edge="1" parent="1" source="s6uH3Yv9zvbrsQpUSpC0-84" target="s6uH3Yv9zvbrsQpUSpC0-97">
          <mxGeometry width="50" height="50" relative="1" as="geometry">
            <mxPoint x="420" y="270" as="sourcePoint" />
            <mxPoint x="490" y="290" as="targetPoint" />
            <Array as="points">
              <mxPoint x="410" y="240" />
              <mxPoint x="430" y="260" />
              <mxPoint x="440" y="270" />
              <mxPoint x="450" y="250" />
            </Array>
          </mxGeometry>
        </mxCell>
        <mxCell id="s6uH3Yv9zvbrsQpUSpC0-108" value="&lt;b&gt;Mysql&lt;/b&gt;" style="text;html=1;align=center;verticalAlign=middle;resizable=0;points=[];autosize=1;strokeColor=none;fillColor=none;fontSize=12;fontFamily=Verdana;" vertex="1" parent="1">
          <mxGeometry x="490" y="365" width="60" height="30" as="geometry" />
        </mxCell>
        <mxCell id="s6uH3Yv9zvbrsQpUSpC0-109" value="&lt;b&gt;定时推送&lt;/b&gt;" style="text;html=1;align=center;verticalAlign=middle;resizable=0;points=[];autosize=1;strokeColor=none;fillColor=none;fontSize=12;fontFamily=Verdana;" vertex="1" parent="1">
          <mxGeometry x="405" y="270" width="70" height="30" as="geometry" />
        </mxCell>
        <mxCell id="s6uH3Yv9zvbrsQpUSpC0-140" value="" style="verticalLabelPosition=bottom;verticalAlign=top;html=1;shape=mxgraph.infographic.cylinder;fillColor=#10739E;strokeColor=none;fontFamily=Verdana;fontSize=12;opacity=40;" vertex="1" parent="1">
          <mxGeometry x="420" y="335" width="50" height="25" as="geometry" />
        </mxCell>
        <mxCell id="s6uH3Yv9zvbrsQpUSpC0-141" value="&lt;b&gt;日志存储器&lt;/b&gt;" style="text;html=1;align=center;verticalAlign=middle;resizable=0;points=[];autosize=1;strokeColor=none;fillColor=none;fontSize=12;fontFamily=Verdana;" vertex="1" parent="1">
          <mxGeometry x="405" y="365" width="80" height="30" as="geometry" />
        </mxCell>
        <mxCell id="s6uH3Yv9zvbrsQpUSpC0-142" value="" style="endArrow=none;dashed=1;html=1;rounded=0;fontFamily=Verdana;fontSize=12;" edge="1" parent="1">
          <mxGeometry width="50" height="50" relative="1" as="geometry">
            <mxPoint x="162.5" y="140" as="sourcePoint" />
            <mxPoint x="600" y="140" as="targetPoint" />
          </mxGeometry>
        </mxCell>
        <mxCell id="s6uH3Yv9zvbrsQpUSpC0-144" value="" style="endArrow=none;dashed=1;html=1;rounded=0;fontFamily=Verdana;fontSize=12;" edge="1" parent="1">
          <mxGeometry width="50" height="50" relative="1" as="geometry">
            <mxPoint x="162.5" y="260" as="sourcePoint" />
            <mxPoint x="420" y="260" as="targetPoint" />
          </mxGeometry>
        </mxCell>
        <mxCell id="s6uH3Yv9zvbrsQpUSpC0-145" value="&lt;b&gt;多&lt;br&gt;语&lt;br&gt;言&lt;br&gt;模&lt;br&gt;块&lt;/b&gt;" style="text;html=1;align=center;verticalAlign=middle;resizable=0;points=[];autosize=1;strokeColor=none;fillColor=none;fontSize=12;fontFamily=Verdana;opacity=40;" vertex="1" parent="1">
          <mxGeometry x="160" y="285" width="40" height="90" as="geometry" />
        </mxCell>
        <mxCell id="s6uH3Yv9zvbrsQpUSpC0-146" value="" style="rounded=1;whiteSpace=wrap;html=1;strokeColor=#BF0F0F;fontFamily=Verdana;fontSize=12;opacity=40;" vertex="1" parent="1">
          <mxGeometry x="160" y="277.5" width="40" height="115" as="geometry" />
        </mxCell>
      </root>
    </mxGraphModel>
  </diagram>
</mxfile>
